HIERARCHY
ROOT Hips
{
	OFFSET 0.0000 0.0000 0.0000
	CHANNELS 6 Xposition Yposition Zposition Zrotation Xrotation Yrotation
	JOINT Spine1
	{
		OFFSET -0.0137 5.0038 -0.0537
		CHANNELS 3 Zrotation Xrotation Yrotation
		JOINT Spine2
		{
			OFFSET -0.0000 7.1253 -0.0298
			CHANNELS 3 Zrotation Xrotation Yrotation
			JOINT Chest
			{
				OFFSET -0.0000 7.5501 -0.8160
				CHANNELS 3 Zrotation Xrotation Yrotation
				JOINT Neck1
				{
					OFFSET -0.1817 26.3113 -0.5533
					CHANNELS 3 Zrotation Xrotation Yrotation
					JOINT Neck2
					{
						OFFSET -0.0000 7.7094 2.3026
						CHANNELS 3 Zrotation Xrotation Yrotation
						JOINT Head
						{
							OFFSET -0.0000 6.1289 1.9537
							CHANNELS 3 Zrotation Xrotation Yrotation
							JOINT Jaw
							{
								OFFSET 0.0026 0.4756 3.0949
								CHANNELS 3 Zrotation Xrotation Yrotation
								End Site
								{
									OFFSET 0.0 1.0 0.0
								}
							}
							JOINT LeftEye
							{
								OFFSET 3.2064 5.3802 7.5869
								CHANNELS 3 Zrotation Xrotation Yrotation
								End Site
								{
									OFFSET 0.0 1.0 0.0
								}
							}
							JOINT RightEye
							{
								OFFSET -3.2224 5.3619 7.5582
								CHANNELS 3 Zrotation Xrotation Yrotation
								End Site
								{
									OFFSET 0.0 1.0 0.0
								}
							}
						}
					}
				}
				JOINT LeftShoulder
				{
					OFFSET 1.6217 23.2372 5.1134
					CHANNELS 3 Zrotation Xrotation Yrotation
					JOINT LeftArm
					{
						OFFSET 14.9198 0.0000 -5.5023
						CHANNELS 3 Zrotation Xrotation Yrotation
						JOINT LeftForeArm
						{
							OFFSET 28.7393 0.0000 -0.0026
							CHANNELS 3 Zrotation Xrotation Yrotation
							JOINT LeftHand
							{
								OFFSET 27.0940 -0.0000 0.0026
								CHANNELS 3 Zrotation Xrotation Yrotation
								JOINT LeftHandThumbEnd
								{
									OFFSET 12.2686 -3.2202 4.8331
									CHANNELS 3 Zrotation Xrotation Yrotation
									End Site
									{
										OFFSET 0.0 1.0 0.0
									}
								}
								JOINT LeftHandMiddleEnd
								{
									OFFSET 19.0120 -0.3129 -0.0340
									CHANNELS 3 Zrotation Xrotation Yrotation
									End Site
									{
										OFFSET 0.0 1.0 0.0
									}
								}
							}
						}
					}
				}
				JOINT RightShoulder
				{
					OFFSET -1.3801 23.1803 5.2142
					CHANNELS 3 Zrotation Xrotation Yrotation
					JOINT RightArm
					{
						OFFSET -15.0372 0.0000 -5.5456
						CHANNELS 3 Zrotation Xrotation Yrotation
						JOINT RightForeArm
						{
							OFFSET -28.7366 0.0000 -0.0026
							CHANNELS 3 Zrotation Xrotation Yrotation
							JOINT RightHand
							{
								OFFSET -27.1336 -0.0000 0.0026
								CHANNELS 3 Zrotation Xrotation Yrotation
								JOINT RightHandThumbEnd
								{
									OFFSET -12.2642 -3.2115 4.8040
									CHANNELS 3 Zrotation Xrotation Yrotation
									End Site
									{
										OFFSET 0.0 1.0 0.0
									}
								}
								JOINT RightHandMiddleEnd
								{
									OFFSET -19.0006 -0.3066 -0.0316
									CHANNELS 3 Zrotation Xrotation Yrotation
									End Site
									{
										OFFSET 0.0 1.0 0.0
									}
								}
							}
						}
					}
				}
			}
		}
	}
	JOINT LeftLeg
	{
		OFFSET 10.0432 -8.4345 2.5957
		CHANNELS 3 Zrotation Xrotation Yrotation
		JOINT LeftShin
		{
			OFFSET -0.0000 -43.2218 -0.8029
			CHANNELS 3 Zrotation Xrotation Yrotation
			JOINT LeftFoot
			{
				OFFSET 0.0000 -42.1551 -3.4815
				CHANNELS 3 Zrotation Xrotation Yrotation
				JOINT LeftToeBase
				{
					OFFSET 0.0000 -5.0595 13.2315
					CHANNELS 3 Zrotation Xrotation Yrotation
					End Site
					{
						OFFSET 0.0 1.0 0.0
					}
				}
			}
		}
	}
	JOINT RightLeg
	{
		OFFSET -10.0473 -8.2953 2.6203
		CHANNELS 3 Zrotation Xrotation Yrotation
		JOINT RightShin
		{
			OFFSET 0.0000 -43.3622 -0.8056
			CHANNELS 3 Zrotation Xrotation Yrotation
			JOINT RightFoot
			{
				OFFSET 0.0000 -42.1174 -3.4784
				CHANNELS 3 Zrotation Xrotation Yrotation
				JOINT RightToeBase
				{
					OFFSET -0.0000 -5.0796 13.2842
					CHANNELS 3 Zrotation Xrotation Yrotation
					End Site
					{
						OFFSET 0.0 1.0 0.0
					}
				}
			}
		}
	}
}
MOTION
Frames: 9
Frame Time: 0.033333
-0.8959 86.2197 5.1210 0.4516 -10.9204 -0.2465 0.1396 11.2301 -0.3058 -0.0834 -0.1984 -1.5665 2.1304 24.3202 -2.6181 14.5978 4.7795 -1.6512 -4.9247 -4.0939 -13.3452 2.9359 -18.1576 -18.0770 0.0111 0.0275 0.0737 0.6833 -10.6071 -3.7702 -0.6493 -10.6203 3.8822 3.7561 15.0793 -18.1801 -56.7973 -15.9858 -28.2304 0.4667 1.0835 -93.5717 9.9379 11.2375 -9.0203 -15.3472 10.3879 16.1488 -60.1381 1.9391 2.6621 8.5917 11.7110 19.1229 57.6302 -46.6258 -27.2146 -0.8843 0.5234 50.5851 -50.6241 -4.9438 7.4225 13.9984 7.3766 -15.6630 49.5628 -3.7300 -5.2561 22.0658 1.6637 -3.4440 0.3076 40.8771 -0.5744 -24.2262 -29.4869 -0.9988 1.6161 -2.9346 -1.8059 -30.7353 -23.4437 -5.6294 0.7515 33.5107 1.5437 25.5962 4.0927 -1.7776 -1.3870 -1.2630 1.1183
-1.1067 86.2729 5.2444 0.2761 -10.8015 -0.1439 0.1058 11.3089 -0.3712 -0.0353 -0.1738 -1.5738 2.0724 24.2071 -2.7433 14.8643 4.5774 -1.7443 -5.0060 -4.1015 -13.2088 2.9376 -17.7356 -18.0417 0.0039 -0.0009 0.0826 0.6818 -10.6383 -3.7697 -0.6611 -10.6551 3.8991 3.6794 15.2070 -18.2801 -56.3288 -16.2944 -28.3205 0.6678 0.9627 -93.6091 9.8766 10.9458 -9.0757 -15.2570 10.3088 16.0670 -59.9997 1.8505 2.6793 8.4596 11.6704 19.0531 57.7271 -46.5673 -27.4227 -0.8529 0.4644 51.2743 -51.0267 -4.1515 6.5265 13.9918 7.3427 -15.6388 49.5262 -3.7169 -5.1355 22.1882 1.6854 -3.7194 0.2812 40.8618 -0.6741 -24.2002 -29.6356 -0.5124 1.6221 -3.0598 -1.8151 -30.5052 -23.4358 -5.6206 0.7438 33.7826 1.5641 25.4843 3.8630 -1.8896 -1.4031 -1.2819 1.0989
-1.2901 86.2387 5.3900 0.1429 -10.6303 -0.0492 0.0439 11.3613 -0.3948 -0.0408 -0.1813 -1.6363 1.9597 24.1053 -2.8746 15.1471 4.3730 -1.8204 -5.0174 -4.0982 -13.1319 2.9841 -17.4364 -17.9439 0.0027 -0.0034 0.0789 0.6785 -10.6606 -3.7778 -0.6596 -10.6723 3.8994 3.5979 15.3007 -18.4954 -55.7660 -16.5729 -28.3049 0.8611 0.8708 -93.7446 9.7499 10.3316 -9.1278 -15.2340 10.2834 16.0192 -59.9684 1.8022 2.6580 8.3381 11.6493 18.9447 57.5411 -46.4289 -27.3883 -0.9479 0.3976 52.3524 -51.3407 -3.3894 5.5051 13.9799 7.3143 -15.6744 49.4745 -3.7199 -5.1368 22.2842 1.6485 -4.1364 0.2807 40.9887 -0.7303 -24.1165 -29.7907 -0.0636 1.6291 -3.0831 -1.8142 -30.3416 -23.6963 -5.5530 0.7546 34.3524 1.5900 25.3671 3.5121 -2.0581 -1.4140 -1.1001 1.0904
-1.5089 86.1667 5.6016 0.0094 -10.4754 0.0053 -0.0529 11.3904 -0.3947 -0.0907 -0.2086 -1.7217 1.8001 24.0585 -3.0144 15.4215 4.2370 -1.9356 -4.9678 -4.0791 -13.0082 3.0914 -17.2592 -17.8215 0.0032 0.0008 0.0719 0.6748 -10.6749 -3.7851 -0.6538 -10.6786 3.8898 3.5294 15.3605 -18.7188 -55.0625 -16.8520 -28.2207 0.9784 0.7519 -93.8031 9.6446 9.6789 -9.1959 -15.2383 10.2855 15.9651 -59.9817 1.8032 2.6199 8.2297 11.6897 18.7767 57.2797 -46.3439 -27.3626 -0.9878 0.3665 53.9056 -51.5776 -2.5044 4.2197 13.9924 7.2522 -15.6788 49.4457 -3.7168 -5.1637 22.3889 1.6724 -4.6094 0.2955 41.1651 -0.7564 -24.1144 -29.9115 0.3854 1.6322 -3.1165 -1.8333 -30.1759 -23.9877 -5.4261 0.7526 34.9595 1.6041 25.1932 3.1350 -2.2440 -1.4180 -0.9048 1.0852
-1.7997 86.0335 5.7857 -0.1641 -10.3134 0.0823 -0.1896 11.3902 -0.4145 -0.1710 -0.2254 -1.8127 1.5821 23.9785 -3.2331 15.7431 4.2153 -2.0821 -4.8410 -4.0534 -12.9350 3.2406 -17.1041 -17.6511 0.0028 0.0068 0.0573 0.6703 -10.6667 -3.7937 -0.6501 -10.6623 3.8702 3.5588 15.3694 -18.9686 -54.2034 -17.1231 -28.1567 1.0918 0.6877 -93.6767 9.6485 9.0896 -9.1429 -15.2522 10.3061 15.9011 -59.9553 1.8501 2.5829 8.0903 11.7315 18.4553 56.8778 -46.2831 -27.2408 -1.0611 0.3669 55.9411 -51.5671 -1.4159 2.4970 14.0325 7.2132 -15.6686 49.4641 -3.6464 -5.1778 22.5605 1.6652 -5.1287 0.3237 41.4554 -0.7853 -24.1656 -30.0931 0.7688 1.6360 -3.1975 -1.8490 -29.9869 -24.3064 -5.3590 0.7780 35.5724 1.6525 24.9624 2.7786 -2.4767 -1.4177 -0.6987 1.0749
-2.0588 85.8763 6.0142 -0.4338 -10.1437 0.2405 -0.3804 11.3538 -0.4413 -0.2755 -0.2774 -1.9818 1.3070 23.8320 -3.5245 16.1533 4.4084 -2.3034 -4.7034 -4.0198 -12.7789 3.4191 -16.9072 -17.4880 -0.0003 0.0074 0.0597 0.6607 -10.6611 -3.7882 -0.6464 -10.6534 3.8700 3.6200 15.4301 -19.2936 -53.0381 -17.3185 -28.2377 1.2820 0.6331 -93.3478 9.7079 8.5547 -8.9322 -15.2376 10.3224 15.8300 -59.9367 1.8986 2.5394 7.9597 11.7938 17.9925 56.3250 -46.4260 -27.1469 -0.9742 0.3722 58.4064 -51.3684 -0.0213 0.2364 14.0355 7.1294 -15.6313 49.3860 -3.6176 -5.1420 22.8685 1.5703 -5.5850 0.3135 41.9075 -0.8691 -24.0738 -30.3545 0.9145 1.6457 -3.3596 -1.8827 -29.7098 -24.5656 -5.3776 0.8269 36.1661 1.7288 24.6986 2.4732 -2.7573 -1.4188 -0.4596 1.0591
-2.2235 85.7035 6.2429 -0.8366 -9.9417 0.5450 -0.6329 11.2525 -0.5648 -0.4026 -0.3319 -2.1413 0.9075 23.5464 -4.0053 16.7723 4.8137 -2.5894 -4.6093 -3.9651 -12.6270 3.6236 -16.6770 -17.3308 0.0024 -0.0116 0.0533 0.6508 -10.6406 -3.7855 -0.6309 -10.6340 3.8520 3.7080 15.2936 -19.6207 -51.5362 -17.3332 -28.6036 1.4209 0.7151 -92.7656 9.9312 7.8871 -8.7636 -15.1266 10.3131 15.8712 -59.8169 1.8833 2.5737 7.6922 11.9265 17.2483 55.5668 -46.7461 -26.7887 -0.6396 0.2509 61.1371 -50.9954 1.9378 -2.6834 14.1213 7.0869 -15.6315 49.3849 -3.5300 -5.1956 23.3552 1.3545 -6.1875 0.3217 42.5927 -0.8231 -23.9423 -30.5406 0.9474 1.6909 -3.2669 -1.8583 -29.3442 -24.6673 -5.3406 0.7843 36.7158 1.7499 24.6475 2.3041 -3.2004 -1.4231 -0.2496 1.0981
-2.1634 85.5451 6.5334 -1.4275 -9.7229 0.8797 -0.9405 11.0653 -0.6679 -0.5622 -0.4218 -2.4937 0.4965 23.0889 -4.4672 17.5268 5.5396 -2.8436 -4.4404 -3.9442 -12.5307 3.7244 -16.3909 -17.0841 0.0034 -0.0142 0.0264 0.6439 -10.6303 -3.8118 -0.6213 -10.6195 3.8230 3.6239 15.4092 -20.2208 -49.4551 -17.4413 -29.2963 1.6494 0.7610 -91.9757 10.3427 7.2684 -8.7964 -15.1671 10.3958 15.9173 -59.9410 1.9209 2.5926 7.1301 12.0495 16.2006 53.9025 -46.9845 -25.4321 -0.2610 0.2253 64.0868 -50.5761 4.3081 -6.1276 14.1434 6.9725 -15.5950 49.2460 -3.5205 -5.1568 24.0249 1.1397 -6.6421 0.2575 43.3449 -0.9545 -23.6546 -30.8235 0.9604 1.7091 -3.4935 -1.8703 -28.8592 -24.5209 -5.3897 0.8101 36.9391 1.8243 24.6792 2.1766 -3.7648 -1.4241 0.0384 1.0835
-1.8469 85.4773 6.9138 -2.2090 -9.4954 1.2228 -1.2665 10.7901 -0.8002 -0.7913 -0.5367 -2.7720 0.0973 22.4330 -5.1782 18.4696 6.5237 -3.0593 -4.3272 -3.9785 -12.5804 3.6167 -16.0265 -16.7349 0.0107 -0.0258 -0.0574 0.6774 -10.6506 -3.9037 -0.6363 -10.6515 3.7447 3.3270 15.4978 -21.0523 -46.9254 -17.3120 -30.6704 2.2918 0.7834 -90.7706 10.9097 6.7437 -9.3126 -15.2893 10.4665 15.8902 -60.1593 1.9805 2.4926 6.3164 12.1173 14.6967 50.7806 -47.0651 -22.2487 0.0562 0.2462 67.1145 -50.0367 7.4720 -9.9263 14.0441 6.8753 -15.4949 49.0657 -3.5017 -5.1326 24.6587 1.1062 -7.0553 0.2957 43.9693 -0.9778 -22.8225 -31.3070 1.3591 1.7443 -3.6715 -1.8458 -28.2013 -23.9841 -5.3692 0.7629 36.7395 1.8492 24.9527 2.2205 -4.5950 -1.4260 0.2818 1.1023
